<mxfile host="65bd71144e">
    <diagram name="Page-1" id="mVqcKq3zdq-MLdxKxfbU">
        <mxGraphModel dx="569" dy="1089" grid="1" gridSize="10" guides="1" tooltips="1" connect="1" arrows="1" fold="1" page="1" pageScale="1" pageWidth="850" pageHeight="1100" math="0" shadow="0">
            <root>
                <mxCell id="0"/>
                <mxCell id="1" parent="0"/>
                <mxCell id="-BN7RVNzzvXwRUBJSHvl-3" value="" style="edgeStyle=orthogonalEdgeStyle;rounded=0;orthogonalLoop=1;jettySize=auto;html=1;strokeWidth=3;" parent="1" target="-BN7RVNzzvXwRUBJSHvl-2" edge="1">
                    <mxGeometry relative="1" as="geometry">
                        <mxPoint x="415" y="150" as="sourcePoint"/>
                    </mxGeometry>
                </mxCell>
                <mxCell id="-BN7RVNzzvXwRUBJSHvl-5" value="" style="edgeStyle=orthogonalEdgeStyle;rounded=0;orthogonalLoop=1;jettySize=auto;html=1;strokeWidth=3;" parent="1" source="-BN7RVNzzvXwRUBJSHvl-2" target="-BN7RVNzzvXwRUBJSHvl-4" edge="1">
                    <mxGeometry relative="1" as="geometry"/>
                </mxCell>
                <mxCell id="-BN7RVNzzvXwRUBJSHvl-2" value="&lt;font style=&quot;color: rgb(255, 255, 255);&quot;&gt;Display:&lt;/font&gt;&lt;div&gt;&lt;font style=&quot;color: rgb(255, 255, 255);&quot;&gt;&quot;Available Race Formats:&quot;&lt;/font&gt;&lt;/div&gt;" style="shape=parallelogram;perimeter=parallelogramPerimeter;whiteSpace=wrap;html=1;fixedSize=1;fillColor=#008a00;strokeColor=#005700;fontColor=#ffffff;strokeWidth=3;shadow=1;" parent="1" vertex="1">
                    <mxGeometry x="300" y="190" width="230" height="60" as="geometry"/>
                </mxCell>
                <mxCell id="-BN7RVNzzvXwRUBJSHvl-7" value="" style="edgeStyle=orthogonalEdgeStyle;rounded=0;orthogonalLoop=1;jettySize=auto;html=1;strokeWidth=3;" parent="1" source="-BN7RVNzzvXwRUBJSHvl-4" target="-BN7RVNzzvXwRUBJSHvl-6" edge="1">
                    <mxGeometry relative="1" as="geometry"/>
                </mxCell>
                <mxCell id="-BN7RVNzzvXwRUBJSHvl-4" value="&lt;font style=&quot;color: rgb(255, 255, 255);&quot;&gt;Display:&lt;/font&gt;&lt;div&gt;&lt;font style=&quot;color: rgb(255, 255, 255);&quot;&gt;&quot;1 - Circuit Race&quot;&lt;/font&gt;&lt;/div&gt;" style="shape=parallelogram;perimeter=parallelogramPerimeter;whiteSpace=wrap;html=1;fixedSize=1;fillColor=#008a00;strokeColor=#005700;fontColor=#ffffff;strokeWidth=3;shadow=1;" parent="1" vertex="1">
                    <mxGeometry x="300" y="290" width="230" height="60" as="geometry"/>
                </mxCell>
                <mxCell id="-BN7RVNzzvXwRUBJSHvl-10" value="" style="edgeStyle=orthogonalEdgeStyle;rounded=0;orthogonalLoop=1;jettySize=auto;html=1;strokeWidth=3;" parent="1" source="-BN7RVNzzvXwRUBJSHvl-6" target="-BN7RVNzzvXwRUBJSHvl-8" edge="1">
                    <mxGeometry relative="1" as="geometry"/>
                </mxCell>
                <mxCell id="-BN7RVNzzvXwRUBJSHvl-6" value="&lt;font style=&quot;color: rgb(255, 255, 255);&quot;&gt;Display:&lt;/font&gt;&lt;div&gt;&lt;font style=&quot;color: rgb(255, 255, 255);&quot;&gt;&quot;2 - Sprint Race&quot;&lt;/font&gt;&lt;/div&gt;" style="shape=parallelogram;perimeter=parallelogramPerimeter;whiteSpace=wrap;html=1;fixedSize=1;fillColor=#008a00;strokeColor=#005700;fontColor=#ffffff;strokeWidth=3;shadow=1;" parent="1" vertex="1">
                    <mxGeometry x="300" y="390" width="230" height="60" as="geometry"/>
                </mxCell>
                <mxCell id="-BN7RVNzzvXwRUBJSHvl-11" value="" style="edgeStyle=orthogonalEdgeStyle;rounded=0;orthogonalLoop=1;jettySize=auto;html=1;strokeWidth=3;" parent="1" source="-BN7RVNzzvXwRUBJSHvl-8" target="-BN7RVNzzvXwRUBJSHvl-9" edge="1">
                    <mxGeometry relative="1" as="geometry"/>
                </mxCell>
                <mxCell id="-BN7RVNzzvXwRUBJSHvl-8" value="&lt;font style=&quot;color: rgb(255, 255, 255);&quot;&gt;Display:&lt;/font&gt;&lt;div&gt;&lt;font style=&quot;color: rgb(255, 255, 255);&quot;&gt;&quot;3 - Time Trial&quot;&lt;/font&gt;&lt;/div&gt;" style="shape=parallelogram;perimeter=parallelogramPerimeter;whiteSpace=wrap;html=1;fixedSize=1;fillColor=#008a00;strokeColor=#005700;fontColor=#ffffff;strokeWidth=3;shadow=1;" parent="1" vertex="1">
                    <mxGeometry x="300" y="490" width="230" height="60" as="geometry"/>
                </mxCell>
                <mxCell id="-BN7RVNzzvXwRUBJSHvl-13" value="" style="edgeStyle=orthogonalEdgeStyle;rounded=0;orthogonalLoop=1;jettySize=auto;html=1;strokeWidth=3;" parent="1" source="-BN7RVNzzvXwRUBJSHvl-9" target="-BN7RVNzzvXwRUBJSHvl-12" edge="1">
                    <mxGeometry relative="1" as="geometry"/>
                </mxCell>
                <mxCell id="-BN7RVNzzvXwRUBJSHvl-9" value="&lt;font style=&quot;color: rgb(255, 255, 255);&quot;&gt;Display:&lt;/font&gt;&lt;div&gt;&lt;font style=&quot;color: rgb(255, 255, 255);&quot;&gt;&quot;4 - Drag Race&quot;&lt;/font&gt;&lt;/div&gt;" style="shape=parallelogram;perimeter=parallelogramPerimeter;whiteSpace=wrap;html=1;fixedSize=1;fillColor=#008a00;strokeColor=#005700;fontColor=#ffffff;strokeWidth=3;shadow=1;" parent="1" vertex="1">
                    <mxGeometry x="300" y="590" width="230" height="60" as="geometry"/>
                </mxCell>
                <mxCell id="-BN7RVNzzvXwRUBJSHvl-12" value="bookingType == &quot;Group&quot;" style="rhombus;whiteSpace=wrap;html=1;fillColor=#1ba1e2;strokeColor=#006EAF;fontColor=#ffffff;strokeWidth=3;shadow=1;" parent="1" vertex="1">
                    <mxGeometry x="352.5" y="680" width="125" height="120" as="geometry"/>
                </mxCell>
                <mxCell id="-BN7RVNzzvXwRUBJSHvl-14" value="&lt;font style=&quot;color: rgb(255, 255, 255);&quot;&gt;Display:&lt;/font&gt;&lt;div&gt;&lt;font style=&quot;color: rgb(255, 255, 255);&quot;&gt;&quot;5 - Elimination Race&quot;&lt;/font&gt;&lt;/div&gt;" style="shape=parallelogram;perimeter=parallelogramPerimeter;whiteSpace=wrap;html=1;fixedSize=1;fillColor=#008a00;strokeColor=#005700;fontColor=#ffffff;strokeWidth=3;shadow=1;" parent="1" vertex="1">
                    <mxGeometry x="510" y="710" width="199.5" height="60" as="geometry"/>
                </mxCell>
                <mxCell id="2" value="&lt;font style=&quot;color: rgb(255, 255, 255);&quot;&gt;displayRaceFormat&lt;br&gt;(string bookingType)&lt;/font&gt;" style="strokeWidth=3;html=1;shape=mxgraph.flowchart.terminator;whiteSpace=wrap;fillColor=#d80073;fontColor=#ffffff;strokeColor=#A50040;" vertex="1" parent="1">
                    <mxGeometry x="340.5" y="60" width="150" height="90" as="geometry"/>
                </mxCell>
                <mxCell id="3" value="End" style="strokeWidth=3;html=1;shape=mxgraph.flowchart.terminator;whiteSpace=wrap;fillColor=#d80073;fontColor=#ffffff;strokeColor=#A50040;" vertex="1" parent="1">
                    <mxGeometry x="340" y="850" width="150" height="90" as="geometry"/>
                </mxCell>
                <mxCell id="5" value="" style="edgeStyle=orthogonalEdgeStyle;rounded=0;orthogonalLoop=1;jettySize=auto;html=1;strokeWidth=3;entryX=0.5;entryY=0;entryDx=0;entryDy=0;entryPerimeter=0;exitX=0.5;exitY=1;exitDx=0;exitDy=0;" edge="1" parent="1" source="-BN7RVNzzvXwRUBJSHvl-12" target="3">
                    <mxGeometry relative="1" as="geometry">
                        <mxPoint x="414.5" y="800" as="sourcePoint"/>
                        <mxPoint x="415.5" y="830" as="targetPoint"/>
                    </mxGeometry>
                </mxCell>
                <mxCell id="6" value="" style="edgeStyle=none;orthogonalLoop=1;jettySize=auto;html=1;exitX=0.5;exitY=1;exitDx=0;exitDy=0;strokeWidth=3;rounded=0;curved=0;" edge="1" parent="1" source="-BN7RVNzzvXwRUBJSHvl-14">
                    <mxGeometry width="100" relative="1" as="geometry">
                        <mxPoint x="589.75" y="770" as="sourcePoint"/>
                        <mxPoint x="420" y="810" as="targetPoint"/>
                        <Array as="points">
                            <mxPoint x="610" y="810"/>
                        </Array>
                    </mxGeometry>
                </mxCell>
                <mxCell id="7" value="True" style="edgeStyle=none;orthogonalLoop=1;jettySize=auto;html=1;exitX=1;exitY=0.5;exitDx=0;exitDy=0;entryX=0;entryY=0.5;entryDx=0;entryDy=0;strokeWidth=3;" edge="1" parent="1" source="-BN7RVNzzvXwRUBJSHvl-12" target="-BN7RVNzzvXwRUBJSHvl-14">
                    <mxGeometry x="-0.25" width="100" relative="1" as="geometry">
                        <mxPoint x="440" y="750" as="sourcePoint"/>
                        <mxPoint x="540" y="750" as="targetPoint"/>
                        <Array as="points"/>
                        <mxPoint as="offset"/>
                    </mxGeometry>
                </mxCell>
            </root>
        </mxGraphModel>
    </diagram>
</mxfile>